<?xml version="1.0" encoding="UTF-8" standalone="no"?>
<!DOCTYPE svg PUBLIC "-//W3C//DTD SVG 1.1//EN"
 "http://www.w3.org/Graphics/SVG/1.1/DTD/svg11.dtd">
<!-- Generated by graphviz version 12.1.2 (20240928.0832)
 -->
<!-- Title: demo&#45;app Pages: 1 -->
<svg width="612pt" height="558pt"
 viewBox="0.00 0.00 612.32 557.60" xmlns="http://www.w3.org/2000/svg" xmlns:xlink="http://www.w3.org/1999/xlink">
<g id="graph0" class="graph" transform="scale(1 1) rotate(0) translate(4 553.6)">
<title>demo&#45;app</title>
<polygon fill="white" stroke="none" points="-4,4 -4,-553.6 608.32,-553.6 608.32,4 -4,4"/>
<!-- postgres&#45;db -->
<g id="node1" class="node">
<title>postgres&#45;db</title>
<path fill="#c8e6c9" stroke="black" d="M132.3,-41.6C132.3,-41.6 17.05,-41.6 17.05,-41.6 11.05,-41.6 5.05,-35.6 5.05,-29.6 5.05,-29.6 5.05,-12 5.05,-12 5.05,-6 11.05,0 17.05,0 17.05,0 132.3,0 132.3,0 138.3,0 144.3,-6 144.3,-12 144.3,-12 144.3,-29.6 144.3,-29.6 144.3,-35.6 138.3,-41.6 132.3,-41.6"/>
<text text-anchor="middle" x="74.68" y="-25" font-family="Times,serif" font-size="14.00">PostgreSQL Database</text>
<text text-anchor="middle" x="74.68" y="-8.2" font-family="Times,serif" font-size="14.00">(resource)</text>
</g>
<!-- k8s&#45;deployment -->
<g id="node2" class="node">
<title>k8s&#45;deployment</title>
<path fill="#c8e6c9" stroke="black" d="M348.91,-143.2C348.91,-143.2 220.45,-143.2 220.45,-143.2 214.45,-143.2 208.45,-137.2 208.45,-131.2 208.45,-131.2 208.45,-113.6 208.45,-113.6 208.45,-107.6 214.45,-101.6 220.45,-101.6 220.45,-101.6 348.91,-101.6 348.91,-101.6 354.91,-101.6 360.91,-107.6 360.91,-113.6 360.91,-113.6 360.91,-131.2 360.91,-131.2 360.91,-137.2 354.91,-143.2 348.91,-143.2"/>
<text text-anchor="middle" x="284.68" y="-126.6" font-family="Times,serif" font-size="14.00">Kubernetes Deployment</text>
<text text-anchor="middle" x="284.68" y="-109.8" font-family="Times,serif" font-size="14.00">(resource)</text>
</g>
<!-- prometheus&#45;scrape -->
<g id="node3" class="node">
<title>prometheus&#45;scrape</title>
<path fill="#c8e6c9" stroke="black" d="M563.72,-244.8C563.72,-244.8 421.64,-244.8 421.64,-244.8 415.64,-244.8 409.64,-238.8 409.64,-232.8 409.64,-232.8 409.64,-215.2 409.64,-215.2 409.64,-209.2 415.64,-203.2 421.64,-203.2 421.64,-203.2 563.72,-203.2 563.72,-203.2 569.72,-203.2 575.72,-209.2 575.72,-215.2 575.72,-215.2 575.72,-232.8 575.72,-232.8 575.72,-238.8 569.72,-244.8 563.72,-244.8"/>
<text text-anchor="middle" x="492.68" y="-228.2" font-family="Times,serif" font-size="14.00">Prometheus Scrape Config</text>
<text text-anchor="middle" x="492.68" y="-211.4" font-family="Times,serif" font-size="14.00">(resource)</text>
</g>
<!-- app&#45;spec -->
<g id="node4" class="node">
<title>app&#45;spec</title>
<path fill="#e3f2fd" stroke="black" d="M287.08,-549.6C287.08,-549.6 198.27,-549.6 198.27,-549.6 192.27,-549.6 186.27,-543.6 186.27,-537.6 186.27,-537.6 186.27,-520 186.27,-520 186.27,-514 192.27,-508 198.27,-508 198.27,-508 287.08,-508 287.08,-508 293.08,-508 299.08,-514 299.08,-520 299.08,-520 299.08,-537.6 299.08,-537.6 299.08,-543.6 293.08,-549.6 287.08,-549.6"/>
<text text-anchor="middle" x="242.68" y="-533" font-family="Times,serif" font-size="14.00">Application Spec</text>
<text text-anchor="middle" x="242.68" y="-516.2" font-family="Times,serif" font-size="14.00">(spec)</text>
</g>
<!-- deploy&#45;workflow -->
<g id="node5" class="node">
<title>deploy&#45;workflow</title>
<path fill="#fff9c4" stroke="black" d="M324.6,-448C324.6,-448 160.75,-448 160.75,-448 154.75,-448 148.75,-442 148.75,-436 148.75,-436 148.75,-418.4 148.75,-418.4 148.75,-412.4 154.75,-406.4 160.75,-406.4 160.75,-406.4 324.6,-406.4 324.6,-406.4 330.6,-406.4 336.6,-412.4 336.6,-418.4 336.6,-418.4 336.6,-436 336.6,-436 336.6,-442 330.6,-448 324.6,-448"/>
<text text-anchor="middle" x="242.68" y="-431.4" font-family="Times,serif" font-size="14.00">Deploy Application Workflow</text>
<text text-anchor="middle" x="242.68" y="-414.6" font-family="Times,serif" font-size="14.00">(workflow)</text>
</g>
<!-- app&#45;spec&#45;&gt;deploy&#45;workflow -->
<g id="edge1" class="edge">
<title>app&#45;spec&#45;&gt;deploy&#45;workflow</title>
<path fill="none" stroke="#1976d2" d="M242.68,-507.64C242.68,-493.87 242.68,-475.35 242.68,-459.65"/>
<polygon fill="#1976d2" stroke="#1976d2" points="246.18,-459.84 242.68,-449.84 239.18,-459.84 246.18,-459.84"/>
<text text-anchor="middle" x="297.25" y="-481" font-family="Times,serif" font-size="10.00">depends&#45;on</text>
<text text-anchor="middle" x="297.25" y="-469" font-family="Times,serif" font-size="10.00">Workflow depends on spec</text>
</g>
<!-- provision&#45;infra&#45;step -->
<g id="node6" class="node">
<title>provision&#45;infra&#45;step</title>
<path fill="#ffe0b2" stroke="black" d="M137.36,-143.2C137.36,-143.2 12,-143.2 12,-143.2 6,-143.2 0,-137.2 0,-131.2 0,-131.2 0,-113.6 0,-113.6 0,-107.6 6,-101.6 12,-101.6 12,-101.6 137.36,-101.6 137.36,-101.6 143.36,-101.6 149.36,-107.6 149.36,-113.6 149.36,-113.6 149.36,-131.2 149.36,-131.2 149.36,-137.2 143.36,-143.2 137.36,-143.2"/>
<text text-anchor="middle" x="74.68" y="-126.6" font-family="Times,serif" font-size="14.00">Provision Infrastructure</text>
<text text-anchor="middle" x="74.68" y="-109.8" font-family="Times,serif" font-size="14.00">(step)</text>
</g>
<!-- deploy&#45;workflow&#45;&gt;provision&#45;infra&#45;step -->
<g id="edge2" class="edge">
<title>deploy&#45;workflow&#45;&gt;provision&#45;infra&#45;step</title>
<path fill="none" stroke="#fbc02d" stroke-width="2" d="M204.17,-406.04C164.84,-383.08 105.94,-341.52 79.71,-286.8 59.46,-244.56 63.23,-188.87 68.46,-154.63"/>
<polygon fill="#fbc02d" stroke="#fbc02d" stroke-width="2" points="71.63,-156.9 69.84,-146.45 64.73,-155.74 71.63,-156.9"/>
<text text-anchor="middle" x="164.69" y="-277.8" font-family="Times,serif" font-size="10.00">contains</text>
<text text-anchor="middle" x="164.69" y="-265.8" font-family="Times,serif" font-size="10.00">Workflow contains infra provisioning step</text>
</g>
<!-- deploy&#45;app&#45;step -->
<g id="node7" class="node">
<title>deploy&#45;app&#45;step</title>
<path fill="#ffe0b2" stroke="black" d="M315.08,-244.8C315.08,-244.8 212.27,-244.8 212.27,-244.8 206.27,-244.8 200.27,-238.8 200.27,-232.8 200.27,-232.8 200.27,-215.2 200.27,-215.2 200.27,-209.2 206.27,-203.2 212.27,-203.2 212.27,-203.2 315.08,-203.2 315.08,-203.2 321.08,-203.2 327.08,-209.2 327.08,-215.2 327.08,-215.2 327.08,-232.8 327.08,-232.8 327.08,-238.8 321.08,-244.8 315.08,-244.8"/>
<text text-anchor="middle" x="263.68" y="-228.2" font-family="Times,serif" font-size="14.00">Deploy Application</text>
<text text-anchor="middle" x="263.68" y="-211.4" font-family="Times,serif" font-size="14.00">(step)</text>
</g>
<!-- deploy&#45;workflow&#45;&gt;deploy&#45;app&#45;step -->
<g id="edge3" class="edge">
<title>deploy&#45;workflow&#45;&gt;deploy&#45;app&#45;step</title>
<path fill="none" stroke="#fbc02d" stroke-width="2" d="M243.66,-405.96C244.94,-381.83 247.5,-340.29 251.5,-304.8 253.3,-288.76 255.95,-270.99 258.31,-256.3"/>
<polygon fill="#fbc02d" stroke="#fbc02d" stroke-width="2" points="261.47,-258.7 259.64,-248.26 254.56,-257.56 261.47,-258.7"/>
<text text-anchor="middle" x="332.59" y="-328.6" font-family="Times,serif" font-size="10.00">contains</text>
<text text-anchor="middle" x="332.59" y="-316.6" font-family="Times,serif" font-size="10.00">Workflow contains app deployment step</text>
</g>
<!-- configure&#45;monitoring&#45;step -->
<g id="node8" class="node">
<title>configure&#45;monitoring&#45;step</title>
<path fill="#ffe0b2" stroke="black" d="M550.7,-346.4C550.7,-346.4 434.66,-346.4 434.66,-346.4 428.66,-346.4 422.66,-340.4 422.66,-334.4 422.66,-334.4 422.66,-316.8 422.66,-316.8 422.66,-310.8 428.66,-304.8 434.66,-304.8 434.66,-304.8 550.7,-304.8 550.7,-304.8 556.7,-304.8 562.7,-310.8 562.7,-316.8 562.7,-316.8 562.7,-334.4 562.7,-334.4 562.7,-340.4 556.7,-346.4 550.7,-346.4"/>
<text text-anchor="middle" x="492.68" y="-329.8" font-family="Times,serif" font-size="14.00">Configure Monitoring</text>
<text text-anchor="middle" x="492.68" y="-313" font-family="Times,serif" font-size="14.00">(step)</text>
</g>
<!-- deploy&#45;workflow&#45;&gt;configure&#45;monitoring&#45;step -->
<g id="edge7" class="edge">
<title>deploy&#45;workflow&#45;&gt;configure&#45;monitoring&#45;step</title>
<path fill="none" stroke="#fbc02d" stroke-width="2" d="M293.57,-405.92C333.45,-390.04 389.08,-367.87 431.4,-351.01"/>
<polygon fill="#fbc02d" stroke="#fbc02d" stroke-width="2" points="431.05,-354.92 439.04,-347.97 428.46,-348.42 431.05,-354.92"/>
<text text-anchor="middle" x="482.68" y="-379.4" font-family="Times,serif" font-size="10.00">contains</text>
<text text-anchor="middle" x="482.68" y="-367.4" font-family="Times,serif" font-size="10.00">Workflow contains monitoring config step</text>
</g>
<!-- provision&#45;infra&#45;step&#45;&gt;postgres&#45;db -->
<g id="edge4" class="edge">
<title>provision&#45;infra&#45;step&#45;&gt;postgres&#45;db</title>
<path fill="none" stroke="#e64a19" stroke-dasharray="5,2" d="M74.68,-101.24C74.68,-87.47 74.68,-68.95 74.68,-53.25"/>
<polygon fill="#e64a19" stroke="#e64a19" points="78.18,-53.44 74.68,-43.44 71.18,-53.44 78.18,-53.44"/>
<text text-anchor="middle" x="124.38" y="-74.6" font-family="Times,serif" font-size="10.00">configures</text>
<text text-anchor="middle" x="124.38" y="-62.6" font-family="Times,serif" font-size="10.00">Step configures database</text>
</g>
<!-- deploy&#45;app&#45;step&#45;&gt;k8s&#45;deployment -->
<g id="edge5" class="edge">
<title>deploy&#45;app&#45;step&#45;&gt;k8s&#45;deployment</title>
<path fill="none" stroke="#e64a19" stroke-dasharray="5,2" d="M267.93,-202.84C270.86,-188.94 274.81,-170.19 278.14,-154.39"/>
<polygon fill="#e64a19" stroke="#e64a19" points="281.48,-155.51 280.12,-145.01 274.63,-154.07 281.48,-155.51"/>
<text text-anchor="middle" x="340.97" y="-176.2" font-family="Times,serif" font-size="10.00">configures</text>
<text text-anchor="middle" x="340.97" y="-164.2" font-family="Times,serif" font-size="10.00">Step configures k8s deployment</text>
</g>
<!-- deploy&#45;app&#45;step&#45;&gt;provision&#45;infra&#45;step -->
<g id="edge8" class="edge">
<title>deploy&#45;app&#45;step&#45;&gt;provision&#45;infra&#45;step</title>
<path fill="none" stroke="#1976d2" d="M200.13,-215.06C159.65,-208.82 112.01,-198.87 96.61,-185.2 87.77,-177.35 82.49,-165.69 79.34,-154.6"/>
<polygon fill="#1976d2" stroke="#1976d2" points="82.76,-153.88 77.11,-144.92 75.94,-155.45 82.76,-153.88"/>
<text text-anchor="middle" x="182.15" y="-176.2" font-family="Times,serif" font-size="10.00">depends&#45;on</text>
<text text-anchor="middle" x="182.15" y="-164.2" font-family="Times,serif" font-size="10.00">App deployment depends on infrastructure</text>
</g>
<!-- configure&#45;monitoring&#45;step&#45;&gt;prometheus&#45;scrape -->
<g id="edge6" class="edge">
<title>configure&#45;monitoring&#45;step&#45;&gt;prometheus&#45;scrape</title>
<path fill="none" stroke="#e64a19" stroke-dasharray="5,2" d="M492.68,-304.44C492.68,-290.67 492.68,-272.15 492.68,-256.45"/>
<polygon fill="#e64a19" stroke="#e64a19" points="496.18,-256.64 492.68,-246.64 489.18,-256.64 496.18,-256.64"/>
<text text-anchor="middle" x="548.5" y="-277.8" font-family="Times,serif" font-size="10.00">configures</text>
<text text-anchor="middle" x="548.5" y="-265.8" font-family="Times,serif" font-size="10.00">Step configures prometheus</text>
</g>
<!-- configure&#45;monitoring&#45;step&#45;&gt;deploy&#45;app&#45;step -->
<g id="edge9" class="edge">
<title>configure&#45;monitoring&#45;step&#45;&gt;deploy&#45;app&#45;step</title>
<path fill="none" stroke="#1976d2" d="M422.56,-308.02C417.87,-306.92 413.2,-305.84 408.68,-304.8 373.17,-296.62 360.84,-303.97 328.7,-286.8 313.23,-278.53 298.78,-265.57 287.45,-253.65"/>
<polygon fill="#1976d2" stroke="#1976d2" points="290.13,-251.39 280.8,-246.36 284.95,-256.11 290.13,-251.39"/>
<text text-anchor="middle" x="408.69" y="-277.8" font-family="Times,serif" font-size="10.00">depends&#45;on</text>
<text text-anchor="middle" x="408.69" y="-265.8" font-family="Times,serif" font-size="10.00">Monitoring depends on app deployment</text>
</g>
</g>
</svg>
